<?xml version="1.0" standalone="no"?>
<svg xmlns:xlink="http://www.w3.org/1999/xlink" id="wave" style="transform:rotate(180deg); transition: 0.3s" viewBox="0 0 1440 230" version="1.1" xmlns="http://www.w3.org/2000/svg"><defs><linearGradient id="sw-gradient-0" x1="0" x2="0" y1="1" y2="0"><stop stop-color="rgba(255, 255, 255, 1)" offset="0%"/><stop stop-color="rgba(255, 255, 255, 1)" offset="100%"/></linearGradient></defs><path style="transform:translate(0, 0px); opacity:1" fill="url(#sw-gradient-0)" d="M0,115L48,107.3C96,100,192,84,288,80.5C384,77,480,84,576,92C672,100,768,107,864,111.2C960,115,1056,115,1152,99.7C1248,84,1344,54,1440,65.2C1536,77,1632,130,1728,126.5C1824,123,1920,61,2016,30.7C2112,0,2208,0,2304,23C2400,46,2496,92,2592,111.2C2688,130,2784,123,2880,103.5C2976,84,3072,54,3168,65.2C3264,77,3360,130,3456,157.2C3552,184,3648,184,3744,172.5C3840,161,3936,138,4032,141.8C4128,146,4224,176,4320,187.8C4416,199,4512,192,4608,184C4704,176,4800,169,4896,168.7C4992,169,5088,176,5184,153.3C5280,130,5376,77,5472,72.8C5568,69,5664,115,5760,130.3C5856,146,5952,130,6048,134.2C6144,138,6240,161,6336,161C6432,161,6528,138,6624,126.5C6720,115,6816,115,6864,115L6912,115L6912,230L6864,230C6816,230,6720,230,6624,230C6528,230,6432,230,6336,230C6240,230,6144,230,6048,230C5952,230,5856,230,5760,230C5664,230,5568,230,5472,230C5376,230,5280,230,5184,230C5088,230,4992,230,4896,230C4800,230,4704,230,4608,230C4512,230,4416,230,4320,230C4224,230,4128,230,4032,230C3936,230,3840,230,3744,230C3648,230,3552,230,3456,230C3360,230,3264,230,3168,230C3072,230,2976,230,2880,230C2784,230,2688,230,2592,230C2496,230,2400,230,2304,230C2208,230,2112,230,2016,230C1920,230,1824,230,1728,230C1632,230,1536,230,1440,230C1344,230,1248,230,1152,230C1056,230,960,230,864,230C768,230,672,230,576,230C480,230,384,230,288,230C192,230,96,230,48,230L0,230Z"/></svg>